<?xml version="1.0" encoding="UTF-8"?>
<svg width="476px" height="186px" viewBox="0 0 476 186" version="1.1" xmlns="http://www.w3.org/2000/svg" xmlns:xlink="http://www.w3.org/1999/xlink">
    <!-- Generator: Sketch 44.1 (41455) - http://www.bohemiancoding.com/sketch -->
    <title>fuzzy</title>
    <desc>Created with Sketch.</desc>
    <defs></defs>
    <g id="Page-1" stroke="none" stroke-width="1" fill="none" fill-rule="evenodd">
        <path d="M57.1796875,142.078125 C55.2109277,138.421857 53.031262,133.85159 50.640625,128.367188 C48.249988,122.882785 45.7890752,117.164092 43.2578125,111.210938 C40.7265498,105.257783 38.0781388,99.4219036 35.3125,93.703125 C32.5468612,87.9843464 29.7578266,83.0156461 26.9453125,78.796875 C25.8203069,77.9531208 24.2734473,77.4375009 22.3046875,77.25 C20.3359277,77.0624991 18.2734483,76.9921873 16.1171875,77.0390625 C13.9609267,77.0859377 11.8281355,77.0390632 9.71875,76.8984375 C7.60936445,76.7578118 5.78125773,76.2656292 4.234375,75.421875 C2.68749227,74.5781208 1.53906625,73.2656339 0.7890625,71.484375 C0.03905875,69.7031161 -0.101564844,67.1250169 0.3671875,63.75 L23.9921875,63.75 C24.4609398,58.4999737 25.2578069,53.2969008 26.3828125,48.140625 C27.5078181,42.9843492 29.0312404,38.0625234 30.953125,33.375 C32.8750096,28.6874766 35.1952989,24.3281452 37.9140625,20.296875 C40.6328261,16.2656048 43.9140433,12.7968895 47.7578125,9.890625 C51.6015817,6.98436047 56.0312249,4.68750844 61.046875,3 C66.0625251,1.31249156 71.7577806,0.46875 78.1328125,0.46875 C80.3828237,0.46875 82.6328012,1.00780711 84.8828125,2.0859375 C87.1328237,3.16406789 89.1484286,4.59374109 90.9296875,6.375 C92.7109464,8.15625891 94.1406196,10.1718637 95.21875,12.421875 C96.2968804,14.6718863 96.8359375,16.9218637 96.8359375,19.171875 C95.0546786,19.171875 93.4609445,18.820316 92.0546875,18.1171875 C90.6484305,17.414059 89.2890691,16.617192 87.9765625,15.7265625 C86.6640559,14.835933 85.25782,13.9921915 83.7578125,13.1953125 C82.257805,12.3984335 80.5703219,12 78.6953125,12 C73.0702844,12 67.8437741,13.1249887 63.015625,15.375 C58.1874759,17.6250113 53.968768,20.6249812 50.359375,24.375 C46.749982,28.1250187 43.9140728,32.4843502 41.8515625,37.453125 C39.7890522,42.4218998 38.7578125,47.6718473 38.7578125,53.203125 C38.7578125,53.5781269 38.7812498,54.2578076 38.828125,55.2421875 C38.8750002,56.2265674 38.8984375,57.2812444 38.8984375,58.40625 C38.8984375,59.5312556 38.9218748,60.6093698 38.96875,61.640625 C39.0156252,62.6718802 39.0390625,63.3749981 39.0390625,63.75 C42.5078298,64.8750056 46.3984159,65.7187472 50.7109375,66.28125 C55.0234591,66.8437528 59.3593532,67.1953118 63.71875,67.3359375 C68.0781468,67.4765632 72.2968546,67.4531259 76.375,67.265625 C80.4531454,67.0781241 84.0859216,66.8437514 87.2734375,66.5625 L88.8203125,68.109375 C89.5703162,68.8593788 89.992187,69.4218731 90.0859375,69.796875 C90.0859375,70.0781264 90.132812,70.2656245 90.2265625,70.359375 L90.5078125,71.203125 C90.5078125,73.1718848 89.4765728,74.7187444 87.4140625,75.84375 C85.3515522,76.9687556 82.7265784,77.7890599 79.5390625,78.3046875 C76.3515466,78.8203151 72.8125195,79.1718741 68.921875,79.359375 C65.0312305,79.5468759 61.281268,79.7109368 57.671875,79.8515625 C54.062482,79.9921882 50.8281393,80.1796863 47.96875,80.4140625 C45.1093607,80.6484387 43.1171931,81.0937467 41.9921875,81.75 C43.2109436,87.3750281 45.3906093,92.8124738 48.53125,98.0625 C51.6718907,103.312526 54.8827961,108.562474 58.1640625,113.8125 C61.4453289,119.062526 64.3515498,124.359348 66.8828125,129.703125 C69.4140752,135.046902 70.6796875,140.531222 70.6796875,146.15625 C70.3046856,146.15625 69.4375068,146.179687 68.078125,146.226562 C66.7187432,146.273438 65.28907,146.203126 63.7890625,146.015625 C62.289055,145.828124 60.8593818,145.429691 59.5,144.820312 C58.1406182,144.210934 57.3671884,143.296881 57.1796875,142.078125 Z M119.226562,71.625 C119.226562,71.0624972 119.25,70.0546948 119.296875,68.6015625 C119.34375,67.1484302 119.367187,65.625008 119.367187,64.03125 C119.367187,62.437492 119.390625,60.9609443 119.4375,59.6015625 C119.484375,58.2421807 119.507812,57.2812528 119.507812,56.71875 C120.164066,55.5937444 120.937496,54.4921929 121.828125,53.4140625 C122.718754,52.3359321 123.656245,51.5859396 124.640625,51.1640625 C125.625005,50.7421854 126.703119,50.6718736 127.875,50.953125 C129.046881,51.2343764 130.242181,52.171867 131.460938,53.765625 L131.460938,56.71875 C131.367187,57.1875023 131.179689,58.2890538 130.898438,60.0234375 C130.617186,61.7578212 130.289064,63.6562397 129.914062,65.71875 C129.539061,67.7812603 129.187502,69.6796788 128.859375,71.4140625 C128.531248,73.1484462 128.367188,74.2499977 128.367188,74.71875 C128.367188,76.5000089 128.554686,78.7265491 128.929688,81.3984375 C129.304689,84.0703259 129.843746,86.8593605 130.546875,89.765625 C131.250004,92.6718895 132.14062,95.5781105 133.21875,98.484375 C134.29688,101.39064 135.58593,103.992176 137.085938,106.289062 C138.585945,108.585949 140.249991,110.484367 142.078125,111.984375 C143.906259,113.484382 146.03905,114.234375 148.476562,114.234375 C151.476577,114.234375 154.124989,113.437508 156.421875,111.84375 C158.718761,110.249992 160.710929,108.187513 162.398438,105.65625 C164.085946,103.124987 165.468745,100.265641 166.546875,97.078125 C167.625005,93.8906091 168.492184,90.6797037 169.148438,87.4453125 C169.804691,84.2109213 170.273436,81.093765 170.554688,78.09375 C170.835939,75.093735 170.976562,72.4687613 170.976562,70.21875 C170.976562,67.9687387 170.812502,65.8359476 170.484375,63.8203125 C170.156248,61.8046774 169.757815,59.8125098 169.289062,57.84375 C168.82031,55.8749902 168.421877,53.9296971 168.09375,52.0078125 C167.765623,50.0859279 167.601562,48.1406348 167.601562,46.171875 C167.601562,44.3906161 168.234369,43.1250037 169.5,42.375 C170.765631,41.6249963 172.195305,41.25 173.789062,41.25 C175.757822,41.25 177.351556,41.8359316 178.570312,43.0078125 C179.789069,44.1796934 180.749996,45.6562411 181.453125,47.4375 C182.156254,49.2187589 182.624999,51.257801 182.859375,53.5546875 C183.093751,55.851574 183.210938,58.1249887 183.210938,60.375 C183.210938,62.6250113 183.164063,64.7578024 183.070312,66.7734375 C182.976562,68.7890726 182.929688,70.4062439 182.929688,71.625 C182.929688,74.8125159 182.695315,78.4218548 182.226562,82.453125 C181.75781,86.4843952 180.937506,90.6327912 179.765625,94.8984375 C178.593744,99.1640838 177.140634,103.359354 175.40625,107.484375 C173.671866,111.609396 171.562512,115.289046 169.078125,118.523438 C166.593738,121.757829 163.734391,124.359365 160.5,126.328125 C157.265609,128.296885 153.632833,129.28125 149.601562,129.28125 C145.382791,129.28125 141.679703,128.273448 138.492188,126.257812 C135.304672,124.242177 132.609386,121.570329 130.40625,118.242188 C128.203114,114.914046 126.35157,111.140646 124.851562,106.921875 C123.351555,102.703104 122.203129,98.4843961 121.40625,94.265625 C120.609371,90.0468539 120.046877,85.9453324 119.71875,81.9609375 C119.390623,77.9765426 119.226562,74.5312645 119.226562,71.625 Z M259.882812,59.671875 C260.070313,59.4843741 260.234374,59.2265641 260.375,58.8984375 C260.515626,58.5703109 260.585937,58.3125009 260.585937,58.125 C260.585937,55.9687392 259.296888,54.539066 256.71875,53.8359375 C254.140612,53.132809 250.929707,52.8046873 247.085938,52.8515625 C243.242168,52.8984377 239.093772,53.1093731 234.640625,53.484375 C230.187478,53.8593769 226.039082,54.0234377 222.195312,53.9765625 C218.351543,53.9296873 215.140638,53.460942 212.5625,52.5703125 C209.984362,51.679683 208.695312,50.0156372 208.695312,47.578125 C208.695312,45.984367 208.812499,44.7890665 209.046875,43.9921875 C209.281251,43.1953085 209.63281,42.6328141 210.101562,42.3046875 C210.570315,41.9765609 211.156246,41.7890627 211.859375,41.7421875 C212.562504,41.6953123 213.335933,41.671875 214.179688,41.671875 L217.835938,41.671875 C218.960943,41.7656255 220.78905,41.8828118 223.320312,42.0234375 C225.851575,42.1640632 228.710922,42.3046868 231.898438,42.4453125 C235.085953,42.5859382 238.437482,42.7734363 241.953125,43.0078125 C245.468768,43.2421887 248.796859,43.4531241 251.9375,43.640625 C255.078141,43.8281259 257.890613,44.0156241 260.375,44.203125 C262.859387,44.3906259 264.757806,44.5312495 266.070312,44.625 C267.757821,45.6562552 269.187494,46.5937458 270.359375,47.4375 C271.531256,48.2812542 272.468746,49.1249958 273.171875,49.96875 C273.875004,50.8125042 274.390623,51.7265576 274.71875,52.7109375 C275.046877,53.6953174 275.210937,54.9374925 275.210937,56.4375 C275.210937,59.6250159 274.554694,62.7421723 273.242187,65.7890625 C271.929681,68.8359527 270.265635,71.8827973 268.25,74.9296875 C266.234365,77.9765777 263.937513,81.0234223 261.359375,84.0703125 C258.781237,87.1172027 256.27345,90.14061 253.835938,93.140625 C251.398425,96.14064 249.101573,99.14061 246.945312,102.140625 C244.789052,105.14064 243.101569,108.046861 241.882812,110.859375 L278.023437,110.859375 C280.742201,110.859375 282.476559,111.374995 283.226562,112.40625 C283.976566,113.437505 284.351562,114.890616 284.351562,116.765625 C284.351562,118.078132 284.210939,119.296869 283.929687,120.421875 C283.648436,121.546881 282.664071,122.390622 280.976562,122.953125 C276.47654,123.328127 271.92971,123.890621 267.335937,124.640625 L253.554688,126.890625 C248.960915,127.640629 244.343773,128.296872 239.703125,128.859375 C235.062477,129.421878 230.445335,129.703125 225.851562,129.703125 C225.851562,122.953091 226.906239,116.460969 229.015625,110.226562 C231.125011,103.992156 233.843733,97.9687791 237.171875,92.15625 C240.500017,86.3437209 244.15623,80.7187772 248.140625,75.28125 C252.12502,69.8437228 256.039043,64.6406498 259.882812,59.671875 Z M361.304688,59.671875 C361.492188,59.4843741 361.656249,59.2265641 361.796875,58.8984375 C361.937501,58.5703109 362.007813,58.3125009 362.007813,58.125 C362.007813,55.9687392 360.718763,54.539066 358.140625,53.8359375 C355.562487,53.132809 352.351582,52.8046873 348.507813,52.8515625 C344.664043,52.8984377 340.515647,53.1093731 336.0625,53.484375 C331.609353,53.8593769 327.460957,54.0234377 323.617188,53.9765625 C319.773418,53.9296873 316.562513,53.460942 313.984375,52.5703125 C311.406237,51.679683 310.117188,50.0156372 310.117188,47.578125 C310.117188,45.984367 310.234374,44.7890665 310.46875,43.9921875 C310.703126,43.1953085 311.054685,42.6328141 311.523438,42.3046875 C311.99219,41.9765609 312.578121,41.7890627 313.28125,41.7421875 C313.984379,41.6953123 314.757808,41.671875 315.601563,41.671875 L319.257813,41.671875 C320.382818,41.7656255 322.210925,41.8828118 324.742188,42.0234375 C327.27345,42.1640632 330.132797,42.3046868 333.320313,42.4453125 C336.507828,42.5859382 339.859357,42.7734363 343.375,43.0078125 C346.890643,43.2421887 350.218734,43.4531241 353.359375,43.640625 C356.500016,43.8281259 359.312488,44.0156241 361.796875,44.203125 C364.281262,44.3906259 366.179681,44.5312495 367.492188,44.625 C369.179696,45.6562552 370.609369,46.5937458 371.78125,47.4375 C372.953131,48.2812542 373.890621,49.1249958 374.59375,49.96875 C375.296879,50.8125042 375.812498,51.7265576 376.140625,52.7109375 C376.468752,53.6953174 376.632813,54.9374925 376.632813,56.4375 C376.632813,59.6250159 375.976569,62.7421723 374.664063,65.7890625 C373.351556,68.8359527 371.68751,71.8827973 369.671875,74.9296875 C367.65624,77.9765777 365.359388,81.0234223 362.78125,84.0703125 C360.203112,87.1172027 357.695325,90.14061 355.257813,93.140625 C352.8203,96.14064 350.523448,99.14061 348.367188,102.140625 C346.210927,105.14064 344.523444,108.046861 343.304688,110.859375 L379.445313,110.859375 C382.164076,110.859375 383.898434,111.374995 384.648438,112.40625 C385.398441,113.437505 385.773438,114.890616 385.773438,116.765625 C385.773438,118.078132 385.632814,119.296869 385.351563,120.421875 C385.070311,121.546881 384.085946,122.390622 382.398438,122.953125 C377.898415,123.328127 373.351585,123.890621 368.757813,124.640625 L354.976563,126.890625 C350.38279,127.640629 345.765648,128.296872 341.125,128.859375 C336.484352,129.421878 331.86721,129.703125 327.273438,129.703125 C327.273438,122.953091 328.328114,116.460969 330.4375,110.226562 C332.546886,103.992156 335.265608,97.9687791 338.59375,92.15625 C341.921892,86.3437209 345.578105,80.7187772 349.5625,75.28125 C353.546895,69.8437228 357.460918,64.6406498 361.304688,59.671875 Z M411.960937,56.296875 C411.960937,55.4531208 411.984375,54.585942 412.03125,53.6953125 C412.078125,52.804683 412.265623,51.9609415 412.59375,51.1640625 C412.921877,50.3671835 413.390622,49.7578146 414,49.3359375 C414.609378,48.9140604 415.523431,48.703125 416.742187,48.703125 L417.585937,48.703125 C417.867189,48.7968755 418.101562,48.84375 418.289062,48.84375 C420.070321,51.2812622 421.617181,54.3984185 422.929687,58.1953125 C424.242194,61.9922065 425.507806,66.0234162 426.726562,70.2890625 C427.945319,74.5547088 429.257805,78.8671657 430.664062,83.2265625 C432.07032,87.5859593 433.898426,91.4999827 436.148437,94.96875 C438.398449,98.4375173 441.164046,101.203115 444.445312,103.265625 C447.726579,105.328135 451.804663,106.218751 456.679687,105.9375 C458.835948,105.9375 460.242184,104.765637 460.898437,102.421875 C461.554691,100.078113 461.90625,97.0781433 461.953125,93.421875 C462,89.7656067 461.906251,85.734397 461.671875,81.328125 C461.437499,76.921853 461.437499,72.7265824 461.671875,68.7421875 C461.906251,64.7577926 462.609369,61.26564 463.78125,58.265625 C464.953131,55.26561 466.992173,53.2500052 469.898437,52.21875 C471.117194,54.6562622 472.124996,58.4765365 472.921875,63.6796875 C473.718754,68.8828385 474.304686,74.8827785 474.679687,81.6796875 C475.054689,88.4765965 475.242187,95.8358979 475.242187,103.757812 C475.242187,111.679727 475.054689,119.554648 474.679687,127.382812 C474.304686,135.210977 473.742191,142.734339 472.992187,149.953125 C472.242184,157.171911 471.398442,163.499973 470.460937,168.9375 C469.523433,174.375027 468.421881,178.664047 467.15625,181.804688 C465.890619,184.945328 464.554695,186.281252 463.148437,185.8125 C461.179678,183.937491 459.656255,181.500015 458.578125,178.5 C457.499995,175.499985 456.750002,172.171893 456.328125,168.515625 C455.906248,164.859357 455.742187,160.992208 455.835937,156.914062 C455.929688,152.835917 456.093749,148.734396 456.328125,144.609375 C456.562501,140.484354 456.843748,136.453145 457.171875,132.515625 C457.500002,128.578105 457.664062,124.968766 457.664062,121.6875 C454.289046,121.968751 450.843768,121.453132 447.328125,120.140625 C443.812482,118.828118 440.367204,116.789076 436.992187,114.023438 C433.617171,111.257799 430.406265,107.90627 427.359375,103.96875 C424.312485,100.03123 421.640636,95.5781498 419.34375,90.609375 C417.046864,85.6406002 415.242194,80.2734663 413.929687,74.5078125 C412.617181,68.7421587 411.960937,62.6719069 411.960937,56.296875 Z" id="fuzzy" fill="#40C4FF"></path>
    </g>
</svg>